<?xml version="1.0" standalone="no"?>
<!DOCTYPE svg PUBLIC "-//W3C//DTD SVG 20010904//EN"
 "http://www.w3.org/TR/2001/REC-SVG-20010904/DTD/svg10.dtd">
<svg version="1.0" xmlns="http://www.w3.org/2000/svg"
 width="752.000000pt" height="752.000000pt" viewBox="0 0 752.000000 752.000000"
 preserveAspectRatio="xMidYMid meet">

<g transform="translate(0.000000,752.000000) scale(0.100000,-0.100000)"
fill="#000000" stroke="none">
<path d="M2845 6084 c-16 -8 -45 -30 -64 -47 -32 -31 -91 -113 -91 -128 0 -4
26 -22 58 -39 75 -43 185 -124 216 -161 l25 -29 93 19 c51 11 126 23 166 26
39 4 72 12 72 17 0 37 -96 164 -186 246 -112 103 -212 136 -289 96z"/>
<path d="M2219 5957 c-47 -32 -85 -99 -109 -192 -57 -225 -41 -549 37 -713
l26 -56 -22 -40 c-169 -304 -249 -471 -355 -738 -209 -530 -334 -1079 -387
-1708 -23 -266 -11 -1003 17 -1103 5 -16 91 -17 1624 -17 l1618 0 6 23 c3 12
6 63 6 112 0 273 -116 664 -268 901 -86 134 -125 242 -158 439 -18 106 -26
434 -12 510 l8 40 -123 -13 c-350 -38 -674 33 -972 213 -78 47 -265 181 -265
189 0 3 29 -13 65 -35 191 -116 416 -213 601 -260 208 -52 383 -59 589 -23 44
8 94 14 110 14 19 0 132 49 290 125 410 198 470 215 911 250 320 26 405 53
470 150 139 204 249 866 182 1089 -17 55 -113 154 -215 222 -251 167 -667 282
-1257 346 -176 19 -257 22 -656 23 -468 0 -554 -5 -856 -46 l-152 -21 -78 67
c-243 207 -564 327 -675 252z m1646 -719 c96 -24 258 -143 300 -221 16 -30 17
-38 6 -51 -18 -21 -33 -20 -64 4 l-25 20 -69 -33 c-134 -63 -312 -46 -435 43
-31 22 -60 49 -63 60 -7 21 -7 21 -42 -1 -31 -19 -36 -20 -50 -7 -13 14 -13
19 1 45 34 66 146 135 248 152 56 10 127 6 193 -11z m1738 -308 c62 -57 114
-131 123 -178 6 -29 4 -32 -17 -32 -79 0 -247 187 -218 242 17 32 54 21 112
-32z m408 13 c4 -63 -37 -157 -91 -208 -26 -25 -33 -27 -40 -15 -13 21 -4 54
37 138 43 86 91 130 94 85z"/>
</g>
</svg>
